<?xml version="1.0" standalone="no"?>
<!DOCTYPE svg PUBLIC "-//W3C//DTD SVG 20010904//EN"
 "http://www.w3.org/TR/2001/REC-SVG-20010904/DTD/svg10.dtd">
<svg version="1.0" xmlns="http://www.w3.org/2000/svg"
 width="1024.000000pt" height="1024.000000pt" viewBox="0 0 1024.000000 1024.000000"
 preserveAspectRatio="xMidYMid meet">

<g transform="translate(0.000000,1024.000000) scale(0.100000,-0.100000)"
fill="#000000" stroke="none">
<path d="M4735 9566 c-151 -48 -354 -195 -404 -294 -28 -55 -10 -62 25 -9 70
106 194 210 320 269 60 28 83 33 179 39 l110 6 -95 1 c-52 0 -113 -5 -135 -12z"/>
<path d="M5133 9525 c103 -40 244 -123 297 -175 50 -49 120 -164 107 -176 -2
-3 -24 -11 -48 -19 l-44 -15 40 5 c108 14 206 16 268 7 78 -12 188 -60 229
-99 15 -15 30 -24 33 -21 12 12 -99 98 -153 120 -49 19 -75 23 -184 23 -107 0
-128 2 -128 15 -1 60 -104 187 -199 244 -66 40 -184 92 -226 100 -24 5 -23 3
8 -9z"/>
<path d="M3725 9507 c107 -36 176 -95 235 -201 l32 -56 87 0 c88 0 155 -16
232 -55 l34 -18 -18 21 c-41 46 -196 86 -280 72 l-48 -7 -24 47 c-54 106 -164
195 -254 206 l-36 4 40 -13z"/>
<path d="M3485 9503 c-100 -22 -258 -90 -345 -148 -150 -100 -214 -216 -177
-322 l14 -42 -32 -11 c-40 -13 -129 -69 -122 -76 3 -3 23 6 43 20 21 14 60 33
87 42 42 14 47 18 40 37 -14 39 -8 130 11 169 21 44 99 126 161 168 66 45 193
106 292 140 77 26 90 37 28 23z"/>
<path d="M5055 9426 c55 -19 101 -33 103 -31 7 7 -149 65 -175 65 -17 0 11
-14 72 -34z"/>
<path d="M4703 9430 c-24 -10 -43 -21 -43 -24 0 -5 90 31 99 40 10 10 -17 2
-56 -16z"/>
<path d="M3365 9298 c-31 -17 -79 -59 -89 -77 -5 -9 8 0 30 19 21 19 50 43 64
52 28 19 25 23 -5 6z"/>
<path d="M4549 9187 c-20 -17 -49 -50 -64 -72 -27 -38 -26 -38 14 7 23 26 56
59 74 73 18 13 28 25 22 25 -5 0 -26 -15 -46 -33z"/>
<path d="M6245 9086 c-33 -7 -84 -22 -114 -34 -56 -22 -161 -87 -161 -100 0
-4 -12 -20 -25 -35 -25 -28 -25 -28 -70 -12 -58 19 -181 19 -265 -1 -36 -8
-99 -33 -140 -55 -41 -22 -76 -36 -78 -31 -10 32 -67 102 -104 129 -80 57
-163 74 -257 52 -37 -8 -52 -7 -90 10 -55 23 -121 37 -121 24 0 -5 22 -25 49
-45 56 -42 93 -88 109 -135 10 -30 1 -46 -12 -24 -12 19 -183 51 -272 51 -180
0 -347 -53 -554 -174 l-115 -67 55 7 c30 3 89 15 132 25 143 36 128 19 -50
-52 -89 -36 -194 -52 -244 -39 -19 6 -63 28 -97 50 -33 22 -61 35 -61 29 0
-22 127 -136 179 -161 l54 -25 -74 -18 c-252 -60 -437 -193 -529 -380 -24 -49
-54 -103 -65 -120 -39 -53 -40 -61 -4 -34 18 14 49 34 66 43 l33 16 -34 -62
c-19 -35 -42 -90 -52 -123 -9 -33 -27 -78 -40 -101 -35 -60 -31 -68 25 -40
l49 25 -75 -77 c-79 -80 -109 -119 -101 -128 3 -3 44 1 92 9 47 7 86 12 86 11
0 -1 -24 -16 -54 -33 -30 -17 -89 -60 -131 -97 -91 -80 -262 -274 -284 -325
-9 -20 -53 -72 -96 -115 -46 -45 -92 -102 -109 -134 l-28 -55 46 52 c103 115
243 204 416 263 52 19 99 37 104 41 35 31 -153 14 -230 -20 -108 -48 3 49 139
122 91 48 92 48 47 44 -25 -3 -54 -8 -65 -12 -49 -19 161 170 265 238 30 20
67 39 83 43 64 15 9 30 -133 37 l-55 2 90 87 c50 47 87 90 83 94 -4 3 -30 2
-58 -3 -27 -6 -50 -7 -50 -4 0 9 140 145 170 165 l24 16 -26 0 c-31 0 -75 -17
-100 -38 -33 -28 -18 3 35 73 60 79 119 118 207 136 97 19 102 30 13 25 -50
-3 -113 -15 -159 -31 -42 -14 -79 -24 -81 -21 -2 2 29 24 70 49 78 47 146 75
262 108 l70 19 -55 -5 c-102 -9 -247 -68 -330 -134 l-45 -36 36 50 c50 69 169
168 259 214 146 75 283 106 525 117 80 4 142 10 138 14 -4 4 -47 12 -95 19
-73 10 -147 29 -218 57 -9 4 5 11 35 19 28 8 102 36 165 63 225 97 274 105
495 77 146 -18 147 -18 111 1 -84 46 -393 77 -545 55 -46 -7 -85 -10 -88 -7
-8 8 187 67 290 87 175 34 330 20 455 -42 35 -17 66 -28 69 -25 4 3 0 38 -9
76 -8 39 -12 70 -10 70 11 0 109 -81 152 -124 24 -25 48 -46 52 -46 14 0 9
139 -6 175 -19 45 -6 44 44 -1 37 -34 100 -141 100 -172 0 -9 18 -1 52 24 75
54 162 90 257 108 104 20 117 19 65 -4 -35 -15 -187 -120 -219 -151 -5 -5 38
7 95 28 163 57 325 58 495 2 33 -11 70 -27 82 -37 22 -17 20 -17 -60 -18 -118
-2 -345 -63 -412 -112 l-20 -14 20 7 c106 37 271 43 410 14 l60 -13 -83 -13
c-75 -12 -189 -50 -179 -60 3 -2 26 2 53 8 68 17 478 19 461 2 -18 -17 -142
-83 -203 -108 l-54 -22 80 -6 c115 -9 191 -31 315 -92 105 -51 199 -119 245
-177 26 -34 22 -35 -40 -3 -27 13 -73 28 -103 31 -56 7 -127 -1 -126 -14 0 -4
27 -20 60 -36 77 -36 165 -122 211 -206 60 -108 55 -115 -24 -37 -40 40 -93
83 -118 96 l-45 25 56 -65 c73 -85 121 -154 160 -230 l31 -63 -53 44 c-30 24
-63 51 -74 59 -19 15 -19 15 -5 -4 8 -11 50 -62 93 -114 66 -79 117 -156 117
-175 0 -3 -28 11 -62 32 -60 36 -178 95 -178 88 0 -2 35 -30 78 -61 135 -102
271 -225 338 -309 87 -107 98 -130 38 -77 -42 37 -150 101 -170 101 -4 0 26
-23 67 -52 114 -79 190 -163 249 -272 28 -53 60 -106 71 -118 l20 -23 -7 35
c-10 53 -71 207 -109 276 -47 83 -112 170 -193 256 -59 63 -73 86 -104 168
-20 52 -48 151 -62 220 -27 136 -46 196 -76 248 -28 46 -25 50 11 16 45 -43
70 -88 78 -142 l7 -47 17 32 c37 70 12 213 -54 308 -30 44 -101 114 -164 162
-86 66 -294 153 -364 153 -44 0 -44 12 -2 31 52 23 121 87 121 111 0 19 -6 20
-114 16 -63 -1 -118 0 -122 5 -4 4 3 7 16 7 22 0 23 1 5 20 -10 11 -23 20 -29
20 -6 0 -4 -5 4 -11 16 -11 15 -11 -50 12 -14 5 -56 12 -95 17 l-70 8 80 18
c53 12 97 16 135 12 l55 -6 -32 28 c-48 41 -171 99 -263 124 -76 20 -80 22
-80 50 0 64 163 173 294 197 134 25 297 5 382 -44 55 -32 119 -106 138 -158
12 -36 15 -38 15 -16 1 15 -12 52 -28 82 l-29 55 26 11 c54 20 77 24 153 23
90 -2 165 -26 223 -74 40 -33 86 -116 86 -155 0 -13 5 -23 10 -23 6 0 8 12 4
28 -28 127 -96 202 -219 237 -75 22 -207 16 -263 -12 l-39 -19 -42 32 c-89 69
-277 101 -416 70z m-1170 -126 c22 -5 50 -19 63 -29 20 -18 65 -101 58 -109
-2 -1 -18 12 -37 29 -19 18 -61 52 -94 77 -72 53 -75 56 -50 49 11 -3 38 -11
60 -17z m815 -110 c23 -14 9 -18 -48 -13 -35 4 -49 9 -40 14 17 11 69 11 88
-1z"/>
<path d="M6380 8899 c36 -10 72 -18 80 -18 24 2 -92 38 -120 38 -14 0 4 -9 40
-20z"/>
<path d="M2550 8789 c-155 -30 -290 -169 -294 -302 l-1 -52 -85 0 c-72 0 -93
-4 -135 -26 -66 -34 -98 -80 -92 -135 l4 -42 -49 -5 c-62 -8 -133 -48 -159
-90 -20 -33 -27 -93 -9 -82 6 3 10 15 10 25 0 50 95 117 181 127 58 7 63 12
47 48 -23 51 38 127 126 155 37 12 143 10 176 -4 12 -5 15 4 15 52 1 112 78
217 204 279 47 24 68 28 136 28 70 -1 88 -5 148 -35 76 -37 136 -97 163 -163
l17 -42 74 0 c72 0 73 0 42 13 -20 8 -49 11 -70 8 -36 -6 -38 -4 -49 29 -15
45 -98 136 -154 169 -46 27 -145 57 -181 55 -11 -1 -40 -5 -65 -10z"/>
<path d="M7280 8715 c19 -9 48 -28 64 -43 24 -22 27 -23 18 -6 -14 26 -51 51
-88 59 -26 5 -25 4 6 -10z"/>
<path d="M5845 8696 c-55 -14 -142 -53 -151 -68 -3 -5 11 -1 32 10 49 24 125
49 189 61 42 7 45 9 15 9 -19 0 -57 -5 -85 -12z"/>
<path d="M7650 8681 c-75 -24 -114 -45 -161 -88 -44 -40 -85 -111 -97 -169 -7
-34 -10 -36 -50 -39 -23 -2 -57 -13 -75 -24 -38 -24 -30 -27 20 -6 41 17 94
20 110 4 7 -7 12 2 17 32 10 64 56 147 104 190 110 97 326 122 495 59 90 -34
187 -132 187 -190 0 -24 8 -25 34 -5 30 23 114 19 161 -8 46 -26 101 -102 117
-162 l11 -41 36 18 c86 44 181 1 214 -96 l14 -42 -63 -18 c-95 -27 -116 -49
-24 -25 109 29 238 35 329 15 41 -9 76 -14 78 -12 2 2 -15 12 -39 22 -30 12
-78 19 -160 22 l-118 4 0 28 c0 32 -34 85 -71 113 -37 27 -106 33 -152 14 -32
-14 -37 -14 -37 -1 0 50 -79 152 -144 186 -39 20 -108 22 -148 4 -13 -6 -20 0
-32 29 -34 81 -122 154 -223 185 -86 26 -253 27 -333 1z"/>
<path d="M3729 8602 c23 -43 168 -132 216 -132 11 1 -22 23 -73 49 -52 27
-107 62 -124 77 -27 26 -29 26 -19 6z"/>
<path d="M5855 8440 c-14 -6 -1 -9 45 -9 82 -1 132 -15 167 -46 24 -21 26 -26
13 -35 -12 -8 -9 -10 13 -10 36 0 34 15 -6 55 -46 46 -173 70 -232 45z"/>
<path d="M4112 8342 c-7 -5 16 -7 50 -4 85 5 96 10 23 11 -33 0 -66 -3 -73 -7z"/>
<path d="M5620 8237 c3 -3 46 -32 96 -65 172 -115 284 -269 329 -452 14 -56
20 -70 26 -55 20 51 -5 188 -51 282 -55 111 -169 216 -286 261 -50 20 -123 38
-114 29z"/>
<path d="M6360 8189 c0 -4 7 -23 16 -44 17 -42 23 -136 12 -205 l-7 -45 14 40
c25 74 16 194 -20 240 -8 11 -15 17 -15 14z"/>
<path d="M6242 8112 c49 -54 66 -81 94 -149 29 -70 32 -45 4 30 -21 56 -77
129 -113 149 -15 8 -11 -1 15 -30z"/>
<path d="M8097 8090 c-56 -14 -108 -44 -142 -81 l-30 -33 30 19 c108 68 114
70 230 70 100 0 152 -8 250 -40 11 -3 7 1 -9 11 -76 43 -253 73 -329 54z"/>
<path d="M4970 8054 c0 -26 -6 -47 -17 -56 -28 -24 -118 -67 -232 -110 -57
-21 -118 -46 -135 -55 -18 -9 19 32 89 100 95 92 114 114 90 107 -55 -15 -240
-87 -284 -110 l-44 -22 32 40 c17 23 55 61 82 86 28 25 48 46 45 46 -13 0
-172 -83 -233 -122 -111 -70 -195 -185 -230 -313 -23 -87 -27 -221 -9 -299 16
-66 16 -70 -1 -80 -10 -5 -36 -27 -58 -49 l-40 -40 -100 -1 c-87 -1 -106 -4
-144 -26 -54 -31 -60 -45 -26 -63 l27 -13 -44 -13 c-59 -18 -109 -45 -133 -71
l-20 -22 24 -20 c14 -10 38 -22 54 -25 27 -6 25 -8 -50 -51 -262 -151 -388
-447 -284 -667 34 -72 118 -175 167 -204 l35 -21 -6 21 c-10 32 13 137 46 204
l29 60 -6 -50 c-29 -240 46 -424 230 -562 33 -25 76 -60 94 -77 42 -39 41 -27
-7 49 -43 68 -71 140 -71 185 0 50 17 42 24 -11 20 -148 227 -417 323 -419 12
0 50 -18 84 -40 34 -22 64 -38 66 -36 2 2 -1 15 -7 30 -17 46 -12 47 53 2 68
-48 166 -100 174 -93 2 3 -3 22 -11 42 -24 57 -19 62 17 17 17 -23 48 -53 67
-68 41 -31 119 -68 127 -60 3 3 -4 20 -15 38 -11 18 -23 44 -27 57 -6 21 1 18
51 -23 31 -26 71 -54 87 -62 38 -20 109 -45 114 -41 2 2 -4 20 -12 40 -21 51
-20 52 23 19 45 -36 105 -62 153 -67 20 -2 56 -13 79 -25 23 -12 44 -19 47
-16 3 3 0 19 -6 37 -6 18 -11 43 -11 56 0 24 3 22 53 -23 87 -80 142 -97 105
-34 l-16 28 64 63 c63 63 77 68 49 19 -8 -14 -14 -28 -15 -32 0 -11 92 57 177
131 41 35 76 61 79 59 2 -3 0 -18 -6 -33 -16 -42 7 -19 60 59 24 36 46 63 48
61 6 -6 -29 -68 -69 -122 l-39 -53 42 29 c24 15 70 45 103 67 98 64 200 173
241 256 l35 73 -6 -100 -6 -100 30 35 c38 43 108 178 117 225 l6 34 25 -30
c51 -60 162 -119 198 -105 15 5 12 12 -22 49 -40 43 -83 137 -83 180 0 14 9 3
25 -32 27 -58 105 -170 118 -171 5 0 5 10 0 23 -15 42 -7 219 15 324 12 56 22
128 22 159 0 34 4 54 9 49 11 -12 39 -157 47 -247 4 -38 9 -68 11 -68 2 0 22
9 44 20 60 31 117 94 156 173 l35 72 -6 -75 -6 -75 39 41 c59 63 84 139 85
259 0 110 -16 180 -64 275 -71 141 -225 288 -388 371 -48 24 -53 29 -30 29 48
0 138 39 138 60 0 26 -45 60 -123 95 -36 17 -67 33 -67 38 0 4 16 15 35 24 22
10 35 23 33 33 -7 39 -195 65 -262 37 -27 -12 -22 -12 41 -9 38 2 96 -1 127
-8 l57 -12 -33 -17 c-85 -44 -99 -64 -49 -74 16 -3 68 -25 117 -48 l89 -42
-60 -19 c-33 -11 -90 -22 -127 -25 l-67 -6 76 -43 c142 -81 292 -208 371 -314
99 -133 155 -336 122 -440 -7 -21 -8 -17 -9 21 -2 92 -85 263 -162 334 l-32
30 25 -35 c54 -74 91 -162 96 -230 8 -118 -45 -262 -132 -356 l-45 -49 -1 75
c-2 198 -85 426 -201 551 l-50 54 31 -64 c73 -148 90 -347 50 -566 -11 -60
-20 -125 -20 -144 0 -36 0 -36 -14 -11 -7 14 -32 59 -55 100 l-42 75 4 -100
c3 -84 8 -108 31 -154 l28 -54 -31 22 c-45 33 -97 100 -128 167 l-27 59 -7
-96 c-7 -104 -10 -118 -42 -199 l-22 -55 -6 85 c-4 59 -14 102 -31 140 l-25
55 -8 -70 c-9 -83 -33 -156 -69 -213 -30 -48 -118 -148 -163 -186 l-32 -27 33
55 c18 31 50 106 71 168 31 92 38 131 41 208 l4 95 -15 -65 c-20 -90 -61 -201
-105 -290 -38 -76 -89 -147 -75 -105 29 88 46 277 25 290 -6 4 -10 -7 -10 -25
0 -48 -40 -221 -60 -260 -16 -31 -124 -143 -172 -179 -16 -12 -16 -9 1 41 10
30 28 97 39 149 44 198 35 221 -18 49 -17 -57 -45 -129 -60 -160 -27 -53 -149
-214 -157 -206 -2 2 12 41 31 87 41 102 76 213 75 243 0 22 -66 -109 -124
-248 -33 -77 -33 -78 -49 -54 -24 36 -46 106 -48 154 -2 24 -6 44 -10 44 -14
0 -39 -90 -51 -184 l-13 -98 -62 66 c-34 37 -88 104 -118 149 -31 45 -53 71
-49 57 12 -45 66 -149 101 -196 l35 -46 -32 19 c-67 38 -125 102 -169 184 -42
77 -122 179 -140 179 -5 0 24 -73 65 -162 40 -90 76 -174 80 -187 l7 -23 -33
18 c-52 29 -212 194 -234 241 -21 44 -35 55 -35 27 0 -24 59 -195 76 -221 27
-43 -7 -24 -63 34 -37 39 -71 90 -105 158 l-50 100 7 -88 c4 -49 11 -103 16
-120 5 -17 7 -32 5 -34 -5 -5 -96 65 -144 111 -62 58 -88 109 -106 201 -24
124 -26 127 -21 25 2 -56 13 -124 25 -165 12 -38 24 -79 27 -90 5 -18 3 -17
-21 5 -47 43 -117 142 -152 215 -35 74 -48 125 -63 265 -9 82 -10 80 -7 -50 3
-113 8 -148 30 -216 14 -45 37 -98 51 -118 45 -67 -7 -23 -68 56 -62 82 -107
167 -131 247 -18 61 -22 225 -6 281 l9 35 -23 -27 c-34 -38 -66 -130 -73 -207
l-6 -65 -12 34 c-30 87 -26 219 10 321 20 56 8 48 -20 -13 -47 -105 -55 -246
-20 -366 l14 -47 -29 34 c-44 52 -98 160 -115 232 -27 116 -14 242 40 371 14
35 29 70 32 78 10 26 -97 -82 -134 -135 l-35 -50 7 35 c4 19 18 62 31 94 29
72 29 76 4 43 -57 -72 -120 -251 -120 -341 l-1 -41 -28 35 c-46 54 -91 151
-91 192 0 127 130 311 293 417 37 24 67 45 67 47 0 2 -17 -3 -37 -11 -129 -54
-264 -172 -313 -276 -35 -74 -39 -65 -9 23 27 81 93 182 168 257 69 69 111 98
231 158 l85 43 -48 -7 c-47 -6 -171 19 -182 37 -6 10 74 44 155 66 36 10 67
19 70 22 3 2 -10 17 -29 32 l-33 28 53 17 c30 9 85 19 123 22 61 5 69 4 63
-10 -3 -8 -9 -33 -12 -54 l-6 -38 28 50 c52 91 153 145 272 145 65 0 178 -26
306 -69 49 -17 91 -31 92 -31 2 0 3 29 3 64 0 78 23 112 103 149 91 43 150 52
337 52 140 0 186 -4 233 -18 106 -33 168 -116 153 -205 -4 -29 -3 -33 12 -26
91 39 202 75 260 85 89 15 172 1 255 -44 57 -30 127 -98 127 -123 0 -7 4 -15
10 -19 15 -9 -16 81 -40 117 -30 43 -54 63 -110 92 -60 31 -91 37 -171 37 -80
0 -200 -37 -267 -82 l-44 -29 7 29 c10 46 -13 111 -53 152 -21 20 -43 38 -50
40 -10 3 -1 18 26 45 88 88 76 201 -30 287 -78 63 -199 40 -261 -49 -38 -55
-46 -134 -19 -186 l20 -38 -83 0 -83 0 19 37 c35 68 15 157 -47 215 -38 35
-74 48 -135 48 -176 0 -263 -208 -139 -332 l37 -37 -38 -27 c-49 -34 -83 -102
-76 -153 l5 -37 -68 32 c-141 67 -292 95 -386 71 -31 -8 -32 -8 -38 38 -30
198 18 382 135 509 76 84 98 91 58 21 -17 -31 -29 -59 -26 -62 4 -3 28 8 54
25 48 30 226 122 238 122 3 0 -37 -41 -89 -91 -141 -135 -212 -252 -103 -170
67 50 176 104 297 148 52 19 127 50 167 69 39 19 74 34 76 34 3 0 8 -14 12
-31 8 -34 60 -91 106 -114 34 -18 120 -31 144 -21 13 5 9 15 -26 61 -42 56
-46 75 -12 56 11 -5 75 -24 143 -40 130 -32 180 -57 238 -120 39 -43 42 -25 6
47 -15 30 -39 60 -59 72 -18 11 -102 38 -188 59 -85 21 -175 48 -199 59 l-45
20 9 -41 c5 -23 18 -56 29 -73 26 -43 24 -48 -12 -27 -57 33 -96 88 -123 170
-24 73 -25 76 -26 37z m474 -312 c48 -28 69 -66 74 -130 5 -69 -11 -108 -61
-146 -32 -24 -34 -25 -82 -11 -28 7 -72 16 -98 20 -40 5 -51 12 -68 38 -50 83
-1 210 96 245 37 14 101 6 139 -16z m-488 -3 c60 -28 89 -78 89 -151 0 -84
-22 -109 -116 -129 -41 -8 -88 -19 -105 -23 -27 -6 -37 -2 -67 24 -20 17 -41
47 -48 67 -25 77 17 174 93 212 54 27 100 27 154 0z m350 -2521 c8 -16 12 -28
9 -28 -7 0 -45 63 -45 75 0 11 13 -6 36 -47z"/>
<path d="M5279 7651 c-21 -22 -29 -39 -29 -66 0 -27 8 -44 29 -66 54 -54 150
-30 166 42 21 95 -97 159 -166 90z"/>
<path d="M4824 7670 c-50 -20 -71 -101 -39 -147 9 -13 33 -28 55 -34 33 -10
43 -9 72 8 45 26 63 60 54 107 -11 59 -80 91 -142 66z"/>
<path d="M3787 8021 c-38 -42 -67 -91 -67 -113 0 -7 9 6 19 28 11 23 36 60 56
83 21 22 35 41 32 41 -2 0 -21 -18 -40 -39z"/>
<path d="M5436 8051 c-7 -11 30 -44 79 -70 l40 -21 -45 6 c-95 13 -193 34
-205 44 -9 7 -15 8 -19 1 -7 -11 34 -34 124 -70 31 -12 80 -42 110 -66 30 -24
56 -42 58 -40 2 2 -3 18 -12 35 l-15 32 26 -17 c14 -9 23 -13 19 -7 -7 12 40
22 103 22 44 1 45 1 26 16 -11 9 -47 29 -80 45 -77 37 -57 37 46 -1 140 -51
221 -116 274 -220 32 -64 55 -172 55 -262 l0 -71 -47 -44 c-26 -23 -44 -43
-39 -43 5 0 47 15 95 34 47 19 124 42 170 50 47 9 87 18 89 21 11 11 -137 4
-183 -8 l-50 -13 4 84 c9 219 -83 392 -252 475 -134 66 -353 118 -371 88z"/>
<path d="M4258 8020 c-66 -35 -155 -127 -189 -195 -52 -106 -49 -275 6 -373
l16 -27 -7 35 c-4 19 -7 78 -6 130 1 156 44 259 160 382 36 37 63 68 61 68 -2
-1 -21 -10 -41 -20z"/>
<path d="M3847 7943 c-35 -35 -68 -91 -82 -143 -12 -42 11 -10 30 43 10 26 36
68 57 92 48 54 45 59 -5 8z"/>
<path d="M7413 7951 c-47 -22 -59 -37 -15 -19 15 6 68 11 117 11 84 -1 140
-12 280 -58 19 -6 19 -6 2 8 -35 29 -180 70 -262 74 -65 3 -88 0 -122 -16z"/>
<path d="M1453 7951 c-68 -17 -123 -69 -123 -117 0 -29 -3 -32 -41 -38 -42 -7
-104 -34 -96 -42 2 -2 20 3 40 11 20 8 55 15 77 15 40 0 40 0 40 40 0 49 33
83 104 106 48 16 106 13 193 -11 10 -3 -1 4 -25 15 -49 24 -122 33 -169 21z"/>
<path d="M3712 7875 c0 -11 3 -29 8 -40 11 -25 11 1 0 35 -6 20 -8 21 -8 5z"/>
<path d="M2620 7865 c-73 -23 -140 -102 -140 -165 0 -15 -7 -20 -27 -20 -16 0
-33 -4 -40 -8 -6 -4 12 -7 41 -7 51 0 52 1 48 27 -6 40 36 106 86 135 76 45
209 32 297 -28 42 -29 86 -106 68 -117 -7 -4 12 -8 42 -8 30 0 49 4 42 8 -7 4
-22 8 -33 8 -15 0 -24 8 -29 28 -27 110 -221 190 -355 147z"/>
<path d="M7999 7765 c-25 -8 -54 -24 -65 -36 l-19 -22 35 19 c27 15 56 19 130
19 98 0 129 -8 208 -53 27 -15 60 -25 91 -26 27 -1 44 2 38 6 -7 4 -26 8 -43
8 -18 0 -57 15 -90 35 -97 59 -201 77 -285 50z"/>
<path d="M2087 7756 c39 -8 94 -21 123 -31 71 -24 74 -12 3 15 -33 13 -88 24
-128 26 l-70 4 72 -14z"/>
<path d="M6583 7742 c25 -27 55 -101 62 -155 8 -51 20 -56 43 -16 12 21 12 22
-1 7 -21 -26 -27 -22 -27 15 -1 59 -54 165 -84 166 -5 1 -2 -7 7 -17z"/>
<path d="M2720 7723 c24 -2 51 -10 59 -16 11 -10 13 -9 9 3 -3 11 -20 15 -59
16 -47 1 -48 1 -9 -3z"/>
<path d="M7375 7713 c-52 -19 -115 -58 -115 -72 0 -4 30 8 68 27 64 32 70 34
152 29 47 -3 96 -8 110 -11 14 -4 5 3 -19 14 -63 29 -136 34 -196 13z"/>
<path d="M3560 7618 c-22 -49 -24 -67 -10 -88 8 -11 9 -8 4 12 -3 16 2 43 15
72 11 25 18 46 15 46 -3 0 -14 -19 -24 -42z"/>
<path d="M1425 7595 c-22 -9 -47 -23 -55 -32 -14 -14 -13 -15 5 -8 101 38 161
44 240 21 95 -27 100 -27 50 0 -62 34 -177 43 -240 19z"/>
<path d="M1925 7575 c28 -7 72 -23 99 -34 73 -32 69 -16 -5 19 -40 19 -79 30
-104 29 l-40 0 50 -14z"/>
<path d="M3590 7500 c-9 -6 -10 -10 -3 -10 6 0 15 5 18 10 8 12 4 12 -15 0z"/>
<path d="M8870 7452 c9 -19 17 -22 40 -17 18 4 41 0 62 -10 l33 -16 -25 21
c-18 16 -34 21 -60 18 -24 -3 -39 0 -48 11 -11 14 -11 12 -2 -7z"/>
<path d="M2303 7450 c-23 -5 -59 -18 -80 -30 -21 -11 -29 -18 -18 -16 129 32
231 34 365 6 52 -10 96 -18 98 -16 5 6 -114 43 -176 55 -60 12 -128 13 -189 1z"/>
<path d="M2955 7415 c-44 -16 -85 -56 -85 -83 1 -12 5 -9 15 10 22 40 96 71
156 66 31 -3 47 -2 41 4 -17 17 -86 19 -127 3z"/>
<path d="M5211 7307 c-63 -24 -101 -99 -73 -144 23 -36 122 -53 194 -33 83 23
105 126 36 169 -29 18 -117 23 -157 8z"/>
<path d="M4855 7296 c-38 -16 -53 -35 -61 -73 -13 -64 77 -111 176 -93 56 10
80 35 80 80 0 79 -105 125 -195 86z"/>
<path d="M3440 7223 c-18 -20 -44 -61 -58 -91 -20 -45 -24 -65 -20 -127 2 -41
9 -80 16 -87 9 -9 10 -4 2 23 -22 76 0 175 58 255 54 75 55 87 2 27z"/>
<path d="M3482 7083 c-37 -48 -84 -141 -79 -156 2 -7 20 20 40 58 20 39 46 85
58 103 29 44 17 41 -19 -5z"/>
<path d="M7073 6965 c165 -165 257 -317 332 -549 68 -212 72 -206 -57 -80 -62
61 -133 126 -158 145 l-45 33 40 -44 c22 -25 67 -79 99 -120 32 -41 104 -121
160 -177 55 -57 98 -103 96 -103 -4 0 -152 55 -205 76 -11 4 20 -35 68 -87
104 -110 233 -279 307 -399 l52 -85 -52 58 c-54 60 -182 157 -207 157 -8 0 16
-44 59 -105 109 -156 145 -217 194 -328 24 -55 44 -102 44 -104 0 -3 -24 19
-52 49 -29 29 -80 76 -114 104 l-60 52 37 -72 c51 -98 106 -232 134 -329 16
-58 19 -75 8 -59 -18 25 -33 29 -33 7 0 -28 62 -139 114 -205 28 -35 73 -105
99 -155 47 -88 48 -89 42 -45 -5 36 -31 101 -73 182 -2 4 10 2 27 -5 17 -6 34
-7 38 -3 4 5 2 11 -5 13 -7 3 -32 19 -55 37 -40 30 -45 40 -94 186 -29 85 -69
188 -89 229 l-35 76 73 -74 c40 -40 81 -85 90 -100 l18 -26 0 29 c0 78 -109
333 -206 482 -31 47 0 19 58 -53 75 -92 91 -127 134 -294 57 -227 69 -197 17
46 -47 222 -82 310 -184 462 -43 63 -70 98 -181 228 l-26 31 66 -23 c66 -22
112 -29 112 -16 0 3 -33 47 -74 97 l-74 91 -11 88 c-24 176 -94 364 -185 491
-82 114 -216 232 -301 262 -11 4 15 -28 58 -71z"/>
<path d="M5850 6960 c-38 -9 -181 -30 -350 -52 -140 -17 -670 -17 -855 0 -77
8 -194 22 -260 31 -66 10 -122 17 -124 15 -2 -2 1 -34 7 -71 37 -224 246 -408
560 -495 67 -19 104 -22 282 -22 196 0 209 1 293 27 280 87 475 282 505 507
11 77 11 76 -58 60z m-230 -94 c0 -3 -4 -16 -10 -30 -7 -19 -22 -29 -61 -40
-29 -9 -58 -16 -65 -16 -12 0 -28 59 -19 69 11 10 155 26 155 17z m-842 -23
c17 -4 22 -11 20 -35 -1 -16 -5 -31 -9 -34 -17 -10 -115 17 -131 37 -34 41
-24 52 40 44 31 -3 67 -9 80 -12z m518 -40 c-16 -69 -26 -82 -70 -88 -22 -3
-88 -5 -146 -3 -102 3 -105 4 -117 29 -7 15 -16 41 -19 58 l-6 31 182 0 182 0
-6 -27z m80 -258 c74 -5 149 -29 139 -45 -8 -13 -150 -57 -231 -71 -100 -17
-349 -6 -446 20 -85 23 -198 70 -198 81 0 22 94 28 370 24 162 -3 327 -6 366
-9z"/>
<path d="M2940 6893 c-160 -64 -295 -199 -345 -343 -17 -52 -23 -57 84 79 81
103 142 159 256 233 50 32 86 58 80 58 -5 0 -39 -12 -75 -27z"/>
<path d="M2950 6816 c-145 -84 -278 -231 -359 -393 -48 -97 -99 -242 -107
-310 -8 -59 -24 -91 -80 -166 -24 -31 -44 -59 -44 -62 0 -6 102 49 142 77 14
10 29 18 31 18 3 0 -19 -36 -49 -80 -74 -106 -139 -247 -164 -352 -19 -83 -24
-165 -23 -438 0 -70 24 -200 37 -200 2 0 3 44 3 98 -1 120 13 151 118 260 l74
77 -24 -78 c-14 -43 -25 -85 -25 -94 0 -9 -20 -60 -45 -114 -55 -120 -93 -235
-102 -306 -4 -40 -13 -62 -35 -86 -78 -86 -158 -214 -158 -253 0 -9 25 18 56
60 30 42 57 76 60 76 2 0 -8 -24 -22 -52 -15 -29 -34 -80 -44 -112 l-16 -59
-83 104 c-110 139 -247 345 -309 467 -28 54 -58 105 -66 111 -34 29 -49 13
-272 -293 -303 -417 -647 -848 -999 -1251 -72 -82 -137 -159 -145 -170 -14
-19 -14 -19 5 -5 122 92 459 447 711 750 169 202 553 703 630 819 15 24 30 38
32 32 11 -34 -169 -483 -294 -733 -237 -474 -681 -1147 -973 -1476 -100 -113
-87 -110 33 8 408 399 828 1045 1064 1635 100 250 178 489 184 569 1 14 5 26
8 26 3 0 23 -33 44 -73 21 -39 59 -103 84 -142 90 -138 294 -399 327 -418 22
-12 20 -142 -4 -242 -28 -116 -44 -241 -36 -272 7 -27 8 -25 25 24 17 53 48
103 95 158 l27 30 -25 -50 c-67 -137 -117 -330 -117 -455 l0 -68 -50 19 c-28
10 -59 19 -70 19 -10 0 -76 -50 -147 -111 -70 -61 -252 -218 -403 -347 -346
-297 -520 -453 -562 -506 l-32 -41 32 25 c407 319 718 568 880 705 112 93 214
179 227 189 23 19 25 19 84 -4 34 -12 61 -29 61 -36 0 -8 5 -14 10 -14 6 0 10
9 10 21 0 14 5 19 18 17 20 -4 30 -56 31 -166 1 -83 9 -85 45 -14 l25 47 -6
-90 c-12 -218 79 -410 236 -494 32 -17 72 -31 88 -31 24 0 50 -18 122 -85 51
-47 95 -85 97 -85 3 0 0 9 -6 19 -20 38 -9 35 41 -14 29 -28 49 -42 46 -33 -4
12 -2 15 9 11 16 -6 20 32 4 42 -17 10 -11 25 10 25 19 0 20 -7 20 -123 l0
-123 -168 -18 -168 -18 -56 36 c-97 61 -152 79 -253 80 -49 1 -102 -2 -116 -6
-23 -7 -28 -4 -40 24 -19 46 -145 168 -219 211 -36 21 -95 47 -132 58 l-67 21
29 58 c40 79 97 217 131 319 33 96 32 91 21 91 -5 0 -57 -105 -116 -233 l-109
-233 -70 -13 c-108 -18 -208 -71 -286 -150 l-66 -67 -50 9 c-27 6 -171 10
-320 11 -292 1 -384 -9 -547 -60 -77 -24 -121 -54 -62 -41 153 34 241 41 489
41 394 1 640 -34 1190 -168 121 -30 213 -56 205 -59 -8 -3 -40 -11 -71 -17
-50 -10 -61 -8 -125 16 -107 40 -156 56 -160 51 -2 -2 35 -18 84 -36 48 -19
91 -37 95 -41 4 -3 -32 -15 -80 -24 -295 -60 -591 -144 -704 -202 -48 -24 -82
-55 -43 -40 74 30 204 69 317 95 261 60 1334 231 1446 231 32 0 32 0 51 -90
15 -70 67 -230 81 -250 9 -12 10 -11 4 5 -3 11 -8 80 -10 155 l-5 135 14 -77
c25 -140 74 -250 137 -309 l38 -35 -67 -70 c-74 -76 -106 -132 -122 -213 -10
-53 0 -132 20 -156 7 -9 -94 -13 -388 -18 -626 -11 -568 -29 138 -44 267 -5
310 -8 341 -24 69 -35 231 -48 344 -29 35 5 67 4 105 -6 46 -11 129 -12 495
-4 244 6 464 15 495 21 34 8 229 13 515 16 375 3 476 1 545 -11 125 -22 218
-27 585 -31 198 -2 358 0 400 6 39 6 144 11 235 12 138 2 172 5 210 21 42 18
82 20 530 26 669 10 675 10 621 21 -67 13 -496 29 -789 29 l-263 0 16 30 c21
41 19 138 -5 202 -23 62 -93 145 -158 190 -26 17 -49 33 -51 34 -2 2 15 24 37
50 46 51 93 162 118 277 9 39 19 83 23 97 3 14 8 -33 11 -105 4 -116 6 -127
17 -100 19 45 53 184 53 216 0 15 3 30 8 32 12 8 299 -62 424 -103 130 -43
264 -107 366 -175 57 -38 315 -265 309 -272 -1 -1 -123 3 -270 9 l-267 11 -88
89 c-106 109 -167 152 -202 143 -31 -8 -91 -52 -211 -155 -70 -59 -102 -80
-124 -81 l-30 -1 30 -8 c17 -5 156 -13 310 -20 154 -6 386 -17 515 -25 129 -8
377 -21 550 -30 466 -23 705 -41 1055 -80 81 -9 21 11 -102 34 -236 44 -556
79 -923 101 l-185 12 -30 36 c-52 65 -188 202 -237 240 -27 20 -48 39 -48 43
0 4 39 27 88 52 295 151 703 257 990 257 188 0 416 -39 620 -105 63 -20 116
-34 119 -31 10 9 -173 91 -277 124 -194 62 -375 84 -579 70 l-105 -7 -90 73
c-138 113 -324 273 -504 435 -90 80 -178 154 -197 164 -31 17 -36 17 -67 3
-19 -9 -79 -52 -135 -96 -56 -44 -104 -80 -106 -80 -2 0 7 30 21 68 24 60 26
81 27 207 0 77 -3 160 -7 185 l-7 45 26 -55 c22 -44 27 -68 25 -120 -1 -60 0
-63 14 -45 21 28 51 132 66 228 16 99 15 377 0 431 -14 50 1 36 34 -30 l24
-49 -4 100 c-2 73 -9 115 -25 154 -26 65 -26 66 84 241 159 253 247 430 405
810 56 135 109 258 117 275 l16 30 9 -24 c11 -30 -7 -334 -27 -461 -39 -240
-123 -531 -219 -754 -51 -116 -159 -335 -226 -453 -22 -40 -39 -73 -36 -73 20
0 183 270 265 440 87 182 139 325 185 508 46 184 65 331 73 560 l6 183 54
-133 c78 -194 259 -551 363 -718 109 -174 256 -369 381 -505 138 -152 220
-251 284 -347 32 -49 62 -88 67 -88 14 0 -77 170 -152 282 -38 57 -107 150
-155 208 -197 237 -350 462 -490 719 -104 193 -186 375 -299 673 -40 104 -53
121 -88 116 -37 -5 -60 -54 -243 -523 -122 -311 -380 -825 -394 -784 -2 8 -19
59 -37 114 -37 108 -25 107 35 -5 22 -41 31 -51 36 -38 10 25 -22 168 -67 303
-66 196 -116 279 -192 320 -54 29 -54 11 -2 -45 26 -28 62 -83 81 -123 33 -71
88 -237 78 -237 -7 0 -36 35 -113 135 -63 83 -105 128 -154 166 -11 7 4 -23
33 -69 86 -138 178 -322 211 -420 41 -127 39 -133 -18 -80 -129 121 -146 97
-29 -41 23 -27 62 -86 86 -131 l44 -82 -57 45 c-102 84 -140 90 -76 13 25 -29
47 -72 60 -112 22 -74 45 -193 37 -200 -3 -3 -22 23 -42 57 -39 63 -144 182
-176 200 -10 5 5 -23 34 -64 102 -143 157 -296 157 -442 0 -134 -6 -130 -86
56 -77 179 -111 246 -140 270 -14 12 -14 7 3 -26 32 -62 71 -194 89 -300 21
-127 15 -374 -12 -455 l-18 -55 -7 106 c-7 101 -28 212 -48 247 -6 11 -7 -21
-4 -84 4 -73 1 -122 -11 -184 -25 -120 -32 -125 -39 -23 -5 78 -32 201 -42
191 -2 -2 -11 -48 -20 -102 -36 -229 -130 -408 -240 -457 -57 -26 -138 -24
-201 5 -28 13 -54 28 -57 33 -4 5 15 33 42 61 56 60 104 146 121 221 14 58 8
167 -9 184 -6 6 -11 21 -11 34 0 13 -3 23 -6 23 -4 0 -32 -16 -63 -34 -76 -46
-108 -58 -115 -43 -2 7 -5 4 -5 -6 -1 -16 4 -18 32 -12 17 4 53 20 79 36 l47
28 7 -57 c13 -109 -28 -231 -109 -319 -100 -110 -232 -111 -304 -4 -31 45 -29
67 5 79 125 43 200 263 136 398 -19 39 -53 60 -79 50 -15 -5 -14 -10 9 -36 47
-57 48 -169 2 -265 -33 -66 -73 -95 -131 -95 -75 0 -115 51 -115 147 1 32 8
76 17 98 11 27 18 89 22 192 5 129 9 154 23 165 10 7 58 94 108 193 49 99 101
200 116 225 l26 45 -42 -45 c-47 -50 -140 -201 -166 -270 -29 -76 -34 -67 -8
14 34 107 47 204 42 317 l-4 97 38 -42 37 -41 0 40 c0 22 -4 128 -9 235 -9
205 -30 322 -86 495 -35 106 -117 275 -149 305 -33 31 -32 20 10 -77 58 -140
118 -364 139 -528 l7 -50 -27 45 c-34 55 -146 202 -151 197 -2 -2 19 -37 46
-78 96 -144 145 -262 166 -399 7 -43 3 -38 -105 115 -61 88 -132 180 -157 205
l-45 45 45 -65 c61 -89 121 -197 145 -263 41 -110 48 -331 13 -452 -7 -27 -9
-25 -15 30 -14 109 -45 224 -83 300 -20 41 -38 73 -41 71 -2 -2 4 -18 12 -34
38 -73 68 -207 73 -322 5 -104 3 -121 -18 -175 l-24 -60 -6 110 c-4 61 -16
148 -28 194 -24 93 -71 204 -91 216 -9 6 -12 4 -8 -6 3 -8 13 -50 23 -93 24
-106 16 -308 -15 -416 -26 -92 -99 -243 -140 -290 l-30 -35 15 37 c30 76 10
245 -32 271 -6 4 -19 -31 -30 -76 -28 -113 -74 -219 -133 -308 -54 -81 -145
-186 -135 -154 23 71 35 137 34 185 l-1 55 -9 -60 c-5 -33 -16 -94 -25 -137
-16 -72 -20 -80 -76 -135 -45 -44 -57 -52 -50 -32 41 108 66 341 44 399 -8 22
-10 17 -16 -35 -6 -58 -19 -115 -92 -399 -19 -71 -34 -154 -35 -183 l-2 -54
-32 31 c-50 48 -83 119 -96 201 -20 136 -25 143 -33 44 -14 -188 -40 -265
-131 -395 l-58 -83 -14 44 c-7 24 -13 52 -13 62 0 32 -17 17 -73 -65 -31 -46
-76 -112 -101 -148 -25 -36 -46 -71 -46 -77 0 -7 -4 -13 -8 -13 -4 0 -13 37
-19 83 -11 75 -51 222 -59 214 -2 -2 5 -52 16 -112 11 -60 20 -147 20 -194 l0
-86 -68 120 c-70 124 -104 199 -122 273 -6 23 -14 42 -18 42 -4 0 -15 -19 -24
-42 -9 -24 -17 -35 -17 -25 -1 9 -6 17 -12 17 -8 0 -10 -12 -6 -36 3 -20 5
-35 3 -33 -2 2 -29 47 -60 99 -55 93 -80 158 -109 290 l-15 65 -2 -80 c-1 -44
-5 -109 -9 -145 l-6 -65 -36 70 c-49 95 -69 159 -79 257 -6 61 -7 32 -4 -107
4 -127 2 -187 -4 -180 -18 18 -80 149 -96 204 -9 30 -21 107 -27 170 -10 108
-23 170 -35 159 -2 -3 -13 -38 -24 -77 -11 -40 -35 -102 -53 -137 l-33 -65
-37 163 c-21 90 -40 190 -43 223 -6 55 7 202 21 250 7 25 -27 -46 -91 -187
-27 -59 -51 -108 -54 -108 -11 0 -55 238 -55 297 0 34 -3 56 -6 50 -14 -24
-51 -224 -56 -300 l-6 -77 -44 97 c-78 174 -88 218 -87 388 0 126 4 161 22
215 12 35 19 66 17 69 -11 10 -77 -155 -105 -262 -31 -123 -36 -184 -20 -252
5 -22 7 -41 5 -44 -3 -2 -21 31 -41 73 -52 109 -63 201 -40 342 17 107 55 228
106 342 16 34 27 62 25 62 -8 0 -56 -89 -84 -158 -46 -110 -73 -218 -80 -312
l-7 -85 -18 98 c-14 77 -17 129 -14 240 4 125 9 153 35 232 30 89 31 89 6 60
-13 -17 -49 -72 -80 -123 -30 -51 -57 -92 -59 -89 -2 2 3 26 11 53 8 27 29
114 46 194 30 140 68 248 130 371 16 32 27 59 25 59 -4 0 -73 -115 -100 -165
-8 -16 -15 -26 -16 -22 -1 22 58 204 97 301 24 60 42 111 39 113 -6 6 -82
-112 -111 -173 -82 -174 -127 -349 -150 -591 -8 -88 -22 -182 -30 -209 -8 -27
-15 -52 -15 -56 0 -17 22 -6 60 28 47 43 45 57 25 -161 -8 -88 -15 -263 -15
-389 0 -219 1 -231 25 -298 48 -133 27 -235 -53 -259 -79 -23 -147 26 -178
127 -19 63 -17 118 6 184 10 30 17 56 15 58 -11 12 -46 -14 -62 -46 -13 -28
-18 -59 -18 -127 0 -78 4 -97 27 -140 31 -59 71 -99 113 -112 23 -8 29 -15 27
-33 -4 -41 -44 -92 -86 -111 -76 -35 -149 -18 -220 49 -86 83 -126 182 -126
312 0 50 -4 90 -9 90 -33 0 -56 -108 -40 -194 15 -88 71 -196 130 -251 48 -45
48 -45 26 -59 -36 -23 -114 -39 -162 -32 -102 13 -214 105 -274 224 -33 65
-73 199 -88 292 l-9 55 -17 -72 c-9 -40 -17 -102 -17 -138 0 -36 -4 -64 -9
-61 -5 3 -17 38 -26 77 -17 68 -17 164 0 249 4 20 2 19 -10 -7 -28 -60 -39
-166 -27 -251 7 -42 14 -88 17 -102 14 -60 -48 79 -66 147 -33 130 -19 343 31
475 11 28 18 53 16 55 -8 9 -56 -62 -100 -146 -26 -50 -49 -91 -50 -91 -7 0
15 85 41 160 34 99 57 144 106 210 31 42 34 49 13 30 -44 -40 -97 -117 -122
-178 -30 -74 -30 -64 6 114 19 92 42 173 61 213 25 56 27 62 9 46 -34 -31 -87
-126 -124 -223 -19 -50 -44 -108 -55 -129 -20 -37 -20 -37 -21 -10 -1 79 71
319 132 441 51 102 113 181 160 205 l43 22 -38 -5 c-73 -9 -174 -65 -232 -128
l-54 -58 16 53 c28 94 54 136 127 204 72 66 72 69 4 26 -21 -13 -38 -19 -38
-14 0 19 108 199 181 301 64 91 67 97 33 73 -48 -34 -164 -162 -223 -246 -30
-42 -56 -75 -58 -73 -2 2 8 40 23 85 46 140 146 297 277 437 33 35 56 64 53
64 -9 0 -112 -72 -158 -111 -21 -17 -38 -26 -38 -20 0 6 14 55 31 108 59 187
154 357 292 523 39 47 77 94 86 105 31 37 -74 -51 -151 -127 l-78 -78 21 53
c37 94 114 220 211 345 27 35 41 59 31 53 -34 -18 -151 -146 -198 -216 -26
-38 -95 -117 -154 -175 l-108 -105 24 75 c74 229 160 375 318 537 44 46 79 83
77 83 -15 0 -112 -79 -177 -145 -96 -97 -173 -206 -224 -318 -66 -145 -62
-138 -55 -87 9 64 50 201 85 287 54 129 196 336 329 478 58 62 121 139 135
165 4 8 -19 -10 -51 -41 -87 -82 -306 -249 -329 -249 -8 0 60 102 165 245 53
72 100 137 105 145 19 32 -93 -71 -135 -124 -24 -30 -45 -54 -47 -52 -6 5 41
116 84 197 73 139 184 274 323 392 30 26 50 47 45 47 -6 0 -44 -20 -85 -44z
m646 -3335 c40 -86 105 -179 163 -236 23 -21 41 -36 41 -33 0 3 -12 36 -26 74
-15 40 -27 98 -30 139 l-5 70 20 -70 c24 -87 71 -197 115 -270 38 -64 126
-179 131 -173 2 2 -5 47 -15 100 -15 71 -18 111 -12 150 l7 53 19 -104 c19
-111 33 -161 45 -161 4 0 20 43 36 95 15 53 31 98 35 100 4 2 10 -26 13 -63 3
-37 24 -134 46 -217 21 -82 42 -163 46 -180 l7 -30 30 35 c16 19 44 60 61 90
l32 55 8 -65 c10 -80 46 -159 128 -281 l63 -94 11 36 10 37 50 -45 50 -45 11
27 c6 15 14 24 17 19 23 -37 57 -276 57 -393 l0 -46 -28 51 c-28 50 -112 174
-118 174 -2 0 4 -16 12 -36 16 -38 20 -82 29 -284 5 -114 4 -123 -10 -103 -20
29 -43 91 -66 178 -14 57 -18 63 -18 35 -1 -20 5 -60 13 -90 8 -30 13 -56 11
-58 -12 -12 -86 131 -111 213 -22 72 -31 46 -15 -42 14 -76 59 -166 116 -230
26 -29 43 -53 40 -53 -10 0 -81 55 -136 106 -25 23 -59 49 -76 57 -29 15 -31
15 -40 -6 -7 -14 -7 -42 -2 -72 4 -28 8 -86 9 -130 1 -80 1 -80 17 -50 11 21
17 56 17 113 l1 82 80 -86 c112 -122 150 -174 203 -284 44 -90 47 -100 47
-177 0 -76 -2 -84 -28 -111 -20 -21 -45 -33 -85 -41 -56 -12 -641 -35 -650
-26 -3 2 1 11 7 19 34 40 19 205 -23 261 -13 18 -14 11 -9 -71 7 -107 -5 -152
-50 -190 -30 -25 -33 -26 -156 -22 -111 3 -130 6 -164 27 -84 52 -102 174 -46
320 34 88 68 126 123 136 70 14 179 -35 240 -107 32 -37 35 -39 26 -15 -19 54
-13 75 32 104 82 55 198 31 321 -67 28 -22 52 -38 55 -35 3 2 -7 22 -21 44
l-26 39 27 7 c51 13 71 45 28 45 -17 0 -52 29 -125 106 -56 58 -101 102 -101
97 0 -21 65 -106 121 -157 56 -52 58 -56 34 -56 -15 0 -39 9 -54 20 -15 10
-52 28 -82 39 -61 24 -116 70 -178 154 -24 32 -46 55 -49 53 -8 -9 55 -131 85
-163 29 -30 29 -32 9 -35 -48 -8 -169 104 -236 217 -47 78 -45 53 2 -42 34
-68 117 -155 170 -177 28 -12 29 -14 11 -20 -11 -3 -32 -19 -47 -35 l-28 -29
-40 29 c-22 15 -56 31 -75 35 -24 5 -39 15 -51 38 l-17 31 -3 -27 c-2 -16 -9
-28 -17 -28 -7 0 -20 -2 -27 -5 -21 -8 -78 54 -120 132 -21 37 -38 61 -38 52
0 -34 29 -110 60 -155 30 -45 31 -49 14 -61 -9 -7 -25 -24 -35 -39 l-17 -26
-57 68 c-71 86 -112 166 -140 269 -20 71 -23 77 -29 50 -15 -72 -26 -182 -21
-210 4 -20 3 -25 -3 -15 -16 26 -23 152 -12 235 13 102 41 187 85 255 l35 55
-36 -40 c-71 -79 -113 -190 -121 -321 -4 -70 -2 -103 10 -139 12 -35 13 -44 3
-36 -24 20 -74 144 -90 221 -19 95 -37 279 -29 308 3 12 3 22 0 22 -9 0 -49
-69 -67 -117 l-17 -45 -7 76 c-4 42 -4 109 0 150 6 69 9 75 34 86 15 6 40 24
55 40 24 25 30 27 57 18 51 -18 138 -5 186 27 46 30 86 89 97 143 5 24 15 36
39 46 17 7 44 28 59 45 56 67 60 167 12 286 l-28 69 6 231 c4 126 7 237 8 245
0 8 7 -10 15 -40 8 -30 30 -88 50 -129z m2964 -25 c-7 -21 -23 -56 -37 -78
-14 -21 -23 -41 -20 -44 12 -12 72 47 130 129 10 15 11 -1 4 -90 -5 -59 -6
-134 -4 -165 4 -43 -1 -77 -19 -133 -13 -42 -24 -97 -24 -123 1 -81 54 -165
123 -191 17 -7 27 -18 27 -31 0 -60 93 -164 157 -176 19 -4 61 -4 94 -2 57 4
62 3 95 -28 19 -18 50 -38 69 -45 l35 -13 0 -118 c0 -65 -3 -118 -7 -118 -5 0
-25 37 -45 82 l-37 82 6 -90 c9 -142 -21 -302 -79 -430 l-23 -49 -6 165 c-6
162 -14 212 -46 298 -21 57 -25 49 -7 -18 8 -32 14 -103 14 -172 0 -97 -4
-130 -25 -195 -34 -108 -41 -115 -49 -53 -7 56 -38 145 -60 175 -7 10 -1 -19
15 -66 15 -46 31 -106 34 -134 6 -50 6 -50 -56 -123 l-61 -74 -23 35 c-13 19
-32 38 -42 41 -10 4 -13 10 -7 14 39 27 85 144 83 216 0 39 -1 38 -20 -27 -23
-83 -43 -123 -77 -159 -22 -24 -33 -28 -84 -28 -51 0 -58 2 -58 20 0 11 -4 20
-10 20 -5 0 -10 -10 -10 -23 0 -17 -9 -26 -34 -35 -18 -7 -41 -21 -51 -32 -18
-20 -18 -19 -54 13 l-36 32 51 51 c55 55 108 151 102 181 -3 13 -10 7 -26 -24
-12 -22 -49 -75 -83 -117 -50 -63 -65 -76 -90 -76 -16 0 -29 2 -29 4 0 2 16
30 35 62 51 85 75 171 74 263 l-2 76 -7 -67 c-11 -88 -42 -181 -86 -254 -42
-71 -53 -80 -107 -88 -24 -4 -57 -15 -75 -26 -39 -24 -70 -25 -118 -5 l-36 15
7 120 c10 174 9 175 -131 75 -42 -30 -80 -55 -86 -55 -5 0 7 19 26 42 44 51
75 131 82 212 l5 61 -20 -72 c-11 -39 -31 -96 -45 -125 -25 -52 -100 -137
-111 -126 -4 3 1 33 10 67 8 33 18 105 21 158 3 54 10 120 16 146 6 26 8 50 6
52 -12 13 -84 -66 -109 -119 l-29 -61 0 72 c0 49 8 98 24 150 l25 78 -41 -45
-41 -45 7 60 c4 33 23 104 42 157 l36 97 58 -63 c55 -59 123 -106 134 -95 3 3
1 21 -4 40 -14 48 -12 100 6 180 15 68 17 70 82 120 203 152 331 328 382 524
15 57 18 63 19 35 1 -51 -25 -151 -54 -212 -62 -126 -62 -126 13 -58 171 156
268 317 290 484 l7 51 3 -60 c2 -33 -2 -78 -8 -99z m-4367 -33 c-3 -19 -11
-33 -19 -33 -17 0 -8 50 10 62 14 9 14 8 9 -29z m5912 -595 c-22 -184 -69
-356 -159 -582 -31 -77 -54 -141 -52 -143 6 -6 125 247 161 342 38 103 78 266
90 367 l6 57 161 -135 c157 -131 354 -284 510 -396 l77 -55 -102 -23 c-218
-48 -458 -142 -635 -247 -53 -32 -100 -59 -104 -61 -4 -2 -38 15 -75 37 -155
91 -410 172 -685 216 l-38 6 0 58 0 58 58 39 c31 21 87 69 124 106 36 38 75
68 85 68 12 0 -12 -29 -72 -86 -49 -47 -83 -82 -75 -78 25 13 310 214 460 324
180 132 249 180 262 180 6 0 7 -20 3 -52z m-6455 -273 c0 -2 -11 -35 -25 -72
-14 -36 -24 -71 -22 -77 3 -9 79 116 90 148 5 14 115 -22 191 -62 60 -32 237
-181 236 -201 0 -3 -23 -21 -51 -40 l-49 -34 -123 36 c-163 49 -298 82 -437
107 -183 33 -173 24 -94 82 79 58 152 93 221 107 64 12 63 12 63 6z m3047 -37
c-3 -7 -5 -2 -5 12 0 14 2 19 5 13 2 -7 2 -19 0 -25z m2643 -61 c0 -2 -18 -23
-40 -47 l-40 -43 0 41 c0 38 2 41 33 45 17 2 35 5 40 5 4 1 7 0 7 -1z m-4887
-232 c37 -16 67 -31 67 -34 0 -3 -65 -16 -146 -29 l-145 -23 -85 32 c-46 17
-83 34 -80 36 2 3 30 16 63 29 51 22 69 24 158 21 82 -3 112 -9 168 -32z
m2422 -39 c11 -2 31 1 44 6 20 7 29 3 62 -32 22 -23 39 -45 39 -51 0 -6 -41
-9 -107 -7 l-108 3 -3 49 -3 49 28 -7 c15 -4 37 -8 48 -10z m610 6 c37 -7 40
-10 43 -44 2 -28 -1 -37 -15 -42 -10 -2 -82 -2 -161 2 l-144 7 31 43 31 42 88
-1 c48 0 105 -3 127 -7z m140 -221 c-9 -53 -29 -122 -43 -154 -30 -70 -24 -80
47 -76 28 2 51 2 51 0 0 -2 -13 -18 -29 -37 -38 -42 -94 -139 -128 -218 -34
-79 -43 -198 -19 -244 l17 -32 -383 0 c-308 0 -379 2 -365 12 39 30 49 134 21
229 -18 64 -82 187 -125 240 l-30 39 35 -15 c34 -14 96 -21 96 -10 0 3 -7 22
-16 43 -23 54 -44 174 -44 245 l1 62 24 -55 c13 -30 29 -77 36 -105 10 -41 13
-46 20 -28 4 12 11 64 15 117 l7 96 115 0 115 0 59 -65 c33 -36 69 -70 79 -76
18 -9 18 -9 2 26 -15 32 -16 40 -3 78 l15 42 167 3 167 2 6 -37 c13 -79 27
-133 36 -133 4 0 21 42 36 93 33 110 41 91 18 -42z m283 -143 c-1 -46 4 -95
10 -110 15 -36 51 -68 78 -68 22 0 22 -2 -12 -52 -19 -29 -34 -56 -34 -61 0
-5 21 10 48 33 68 60 135 92 209 98 54 4 67 1 109 -23 l47 -27 -6 -54 c-3 -30
-4 -54 -2 -54 2 0 18 21 36 46 17 25 52 59 77 75 38 24 57 29 108 29 79 0 100
-16 144 -112 28 -60 35 -88 38 -159 5 -94 -5 -124 -53 -169 -25 -23 -35 -25
-163 -31 -75 -3 -144 -2 -153 2 -46 23 -70 147 -46 237 14 51 14 52 -4 36 -42
-38 -67 -201 -40 -252 6 -11 11 -23 11 -26 0 -9 -414 -6 -540 4 -63 5 -130 14
-148 20 -109 39 -74 252 77 465 25 36 191 222 207 234 1 1 2 -36 2 -81z m1653
-36 c15 -9 62 -50 105 -91 l79 -74 -109 6 c-60 4 -168 7 -240 7 l-131 0 50 28
c28 16 85 54 129 85 43 31 81 57 85 57 3 0 18 -8 32 -18z m-4228 -59 c7 -9 5
-13 -7 -13 -9 0 -16 4 -16 9 0 5 -2 24 -5 42 l-5 34 11 -30 c7 -16 16 -36 22
-42z m3591 -12 c-16 -15 -16 -15 -9 4 4 11 10 29 13 40 6 18 7 18 10 -4 2 -13
-4 -31 -14 -40z m-3486 -99 c18 -14 40 -38 48 -54 14 -27 13 -33 -8 -76 -33
-67 -37 -183 -10 -245 l20 -46 -55 -7 c-85 -10 -189 2 -242 28 -147 73 -100
290 90 417 60 40 61 40 92 24 18 -9 47 -27 65 -41z m3491 29 c61 -32 136 -96
169 -146 57 -85 61 -187 10 -242 -45 -49 -92 -63 -220 -63 l-117 0 21 47 c29
65 22 171 -15 237 -26 46 -26 47 -8 79 14 25 105 107 119 107 1 0 20 -9 41
-19z"/>
<path d="M3581 2138 c-2 -77 31 -112 63 -66 23 32 20 45 -3 17 -25 -30 -38
-19 -50 42 l-9 44 -1 -37z"/>
<path d="M6151 1930 c0 -9 -21 -55 -45 -103 -47 -93 -45 -113 4 -45 35 48 54
103 47 138 -2 14 -5 18 -6 10z"/>
<path d="M8323 2558 c-26 -28 -96 -148 -90 -154 2 -2 29 34 60 81 32 47 61 85
67 85 5 0 14 -8 19 -17 6 -10 11 -13 11 -7 0 13 -21 34 -35 34 -6 0 -21 -10
-32 -22z"/>
<path d="M5077 1305 c9 -19 18 -33 21 -31 4 5 -26 66 -33 66 -3 0 3 -16 12
-35z"/>
<path d="M6022 6640 c-72 -131 -208 -270 -339 -347 -75 -43 -204 -94 -313
-121 -91 -22 -126 -26 -260 -26 -170 0 -250 15 -405 72 -119 44 -124 45 -72
17 73 -39 240 -92 347 -110 119 -19 220 -19 336 0 279 45 497 172 640 372 41
56 110 191 102 198 -2 2 -18 -23 -36 -55z"/>
<path d="M7176 6614 c39 -38 102 -100 139 -139 64 -67 65 -68 35 -22 -41 62
-165 186 -210 211 -27 15 -19 4 36 -50z"/>
<path d="M6687 6527 c43 -57 84 -113 91 -123 7 -11 1 4 -14 31 -25 47 -126
179 -146 191 -5 3 26 -41 69 -99z"/>
<path d="M3487 6438 c-38 -47 -67 -100 -67 -120 0 -7 14 12 31 42 16 30 42 67
56 82 15 15 24 30 21 33 -3 4 -21 -13 -41 -37z"/>
<path d="M3083 6048 c-25 -28 -63 -97 -63 -116 0 -8 14 12 31 44 17 33 38 67
46 77 9 9 14 17 11 17 -2 0 -14 -10 -25 -22z"/>
<path d="M7282 6035 c10 -35 82 -204 85 -201 5 5 -53 154 -73 186 -8 14 -14
20 -12 15z"/>
<path d="M3108 5923 c7 -3 16 -2 19 1 4 3 -2 6 -13 5 -11 0 -14 -3 -6 -6z"/>
<path d="M3053 5913 c9 -2 23 -2 30 0 6 3 -1 5 -18 5 -16 0 -22 -2 -12 -5z"/>
<path d="M3140 5847 c-50 -105 -59 -212 -19 -225 11 -4 12 -3 1 10 -17 21 -2
122 32 211 14 37 23 67 20 67 -3 0 -18 -28 -34 -63z"/>
<path d="M3350 5737 c-25 -17 -72 -47 -105 -65 -33 -18 -49 -30 -36 -26 30 8
127 65 166 98 42 35 29 31 -25 -7z"/>
<path d="M3158 5633 c7 -3 16 -2 19 1 4 3 -2 6 -13 5 -11 0 -14 -3 -6 -6z"/>
<path d="M2770 5050 c-46 -91 -62 -163 -53 -240 l8 -65 6 95 c4 77 12 112 41
183 19 48 34 87 32 87 -2 0 -17 -27 -34 -60z"/>
<path d="M5790 5080 c0 -3 11 -32 25 -65 44 -107 30 -242 -37 -365 -29 -53
-29 -54 -4 -25 92 107 117 278 57 392 -23 43 -41 70 -41 63z"/>
<path d="M6317 4935 c69 -79 101 -110 108 -104 2 3 -35 43 -82 90 l-87 84 61
-70z"/>
<path d="M3585 4950 c-9 -16 -13 -30 -11 -30 3 0 12 14 21 30 9 17 13 30 11
30 -3 0 -12 -13 -21 -30z"/>
<path d="M5623 4819 c16 -28 32 -78 41 -130 l14 -84 1 61 c1 73 -21 143 -56
175 l-26 24 26 -46z"/>
<path d="M4124 4773 c-35 -71 -37 -150 -6 -232 24 -62 71 -133 83 -125 5 2 28
42 52 87 24 45 56 104 71 130 16 26 26 50 24 53 -8 7 -71 -86 -114 -169 l-41
-78 -16 25 c-62 95 -77 213 -37 304 31 72 19 77 -16 5z"/>
<path d="M2825 4738 l-50 -53 53 50 c48 46 57 55 49 55 -1 0 -25 -24 -52 -52z"/>
<path d="M4740 4713 c-142 -155 -210 -308 -210 -472 0 -58 33 -257 44 -268 2
-2 15 16 30 39 15 24 18 33 7 21 -10 -13 -21 -23 -24 -23 -13 0 -37 147 -37
223 0 93 17 161 62 252 29 57 104 171 163 249 41 54 24 43 -35 -21z"/>
<path d="M3942 4692 c-60 -92 -75 -140 -78 -237 l-3 -90 13 90 c14 94 39 168
82 241 35 59 24 56 -14 -4z"/>
<path d="M4410 4590 c-9 -6 -10 -10 -3 -10 6 0 15 5 18 10 8 12 4 12 -15 0z"/>
<path d="M4002 4548 c-17 -22 -64 -120 -54 -114 5 3 16 20 23 38 l14 33 6 -35
6 -35 2 37 c0 20 5 48 11 62 10 28 8 33 -8 14z"/>
<path d="M1697 4485 c21 -182 147 -418 319 -600 73 -77 73 -71 0 19 -124 155
-234 349 -281 496 -43 137 -45 140 -38 85z"/>
<path d="M8800 4464 c0 -21 71 -233 111 -330 174 -419 428 -749 798 -1034 193
-149 197 -145 16 15 -453 402 -690 737 -881 1245 -24 63 -43 110 -44 104z"/>
<path d="M5810 4282 c35 -73 53 -159 45 -226 -6 -57 -50 -186 -64 -186 -3 0
-14 28 -24 62 -23 77 -55 133 -103 178 l-38 35 36 -50 c51 -72 77 -127 97
-206 10 -39 22 -71 27 -72 17 -4 74 127 85 193 16 99 -14 232 -65 295 -12 14
-11 8 4 -23z"/>
<path d="M3236 4260 c3 -25 9 -88 14 -140 l8 -95 -2 120 c-1 73 -6 128 -13
140 -11 17 -12 13 -7 -25z"/>
<path d="M8450 4281 c0 -7 -32 -93 -70 -193 -76 -193 -88 -249 -22 -96 49 115
107 287 98 295 -3 4 -6 1 -6 -6z"/>
<path d="M2811 4182 c-22 -37 -50 -94 -61 -127 -24 -67 -53 -196 -46 -202 10
-11 46 20 86 77 l45 60 11 -72 c16 -97 69 -216 89 -196 4 3 11 39 16 79 10 79
46 218 60 234 5 5 9 -5 9 -27 0 -38 29 -138 39 -138 4 0 12 18 17 40 6 22 7
37 3 34 -5 -3 -9 -12 -9 -20 0 -36 -19 1 -30 59 -6 35 -15 69 -20 76 -11 20
-68 -134 -82 -224 -10 -64 -13 -72 -24 -57 -28 40 -54 143 -54 214 -1 67 -2
71 -15 53 -71 -96 -100 -128 -103 -113 -4 23 51 184 88 258 17 33 28 60 26 60
-3 0 -23 -30 -45 -68z"/>
<path d="M7165 4161 c-25 -41 -69 -160 -61 -168 6 -7 79 33 114 62 16 14 32
25 35 25 3 0 -9 -42 -25 -92 -37 -114 -36 -192 2 -233 30 -32 35 -32 50 8 16
39 93 177 100 177 8 0 100 -206 100 -224 0 -30 23 -12 63 47 51 76 77 153 76
224 l-1 58 -13 -70 c-16 -89 -101 -262 -106 -215 -4 50 -7 80 -9 120 l-2 45
-12 -50 -12 -50 -34 73 c-18 39 -37 72 -43 72 -27 0 -105 -119 -123 -189 l-12
-46 -12 30 c-21 53 -23 100 -5 166 23 87 43 179 39 179 -2 0 -34 -20 -71 -44
-38 -24 -69 -40 -71 -35 -2 5 12 45 31 89 19 44 33 80 31 80 -2 0 -15 -18 -29
-39z"/>
<path d="M1169 4098 c-34 -51 -108 -156 -164 -233 -56 -77 -111 -156 -124
-175 l-23 -35 31 35 c60 67 169 216 253 345 98 150 101 155 95 155 -3 0 -33
-42 -68 -92z"/>
<path d="M4697 4145 c-6 -18 7 -173 16 -182 2 -1 11 14 20 35 13 26 13 32 3
18 -14 -17 -15 -16 -20 15 -3 19 -7 57 -8 84 -2 36 -5 44 -11 30z"/>
<path d="M3946 4091 c4 -30 12 -71 20 -90 18 -50 16 -29 -6 64 -17 70 -19 73
-14 26z"/>
<path d="M4639 4073 c-13 -16 -12 -17 4 -4 16 13 21 21 13 21 -2 0 -10 -8 -17
-17z"/>
<path d="M1832 4012 c18 -35 43 -75 56 -90 16 -19 13 -9 -12 37 -19 35 -44 76
-56 90 -14 17 -10 5 12 -37z"/>
<path d="M4050 3988 c-6 -29 -14 -62 -17 -73 -3 -11 -2 -17 1 -14 9 9 38 130
32 136 -2 2 -9 -20 -16 -49z"/>
<path d="M5398 3913 c6 -152 -18 -268 -84 -405 -24 -51 -37 -84 -28 -73 33 42
66 106 95 186 26 70 32 103 36 194 2 73 -1 129 -10 165 -13 54 -13 52 -9 -67z"/>
<path d="M6240 3826 c0 -10 60 -126 65 -126 3 0 -9 28 -26 63 -33 65 -39 75
-39 63z"/>
<path d="M4381 3750 c-6 -28 -11 -81 -11 -117 0 -58 -2 -64 -16 -53 -22 19
-64 94 -79 143 -13 39 -14 40 -14 11 -1 -40 39 -118 89 -174 l41 -45 -6 60
c-3 33 -1 96 5 139 12 92 7 111 -9 36z"/>
<path d="M8690 3759 c-72 -44 -326 -282 -467 -437 -92 -102 -139 -166 -97
-132 10 9 55 47 99 86 185 161 482 404 495 404 5 0 28 -33 50 -72 260 -456
682 -914 1000 -1087 83 -45 120 -56 50 -14 -263 156 -691 651 -960 1113 -71
122 -100 160 -124 160 -6 0 -27 -10 -46 -21z"/>
<path d="M1507 3681 c-39 -44 -117 -182 -117 -207 0 -5 19 25 43 67 55 99 98
157 120 165 10 3 20 4 22 2 2 -2 16 -58 30 -125 14 -66 32 -138 40 -159 9 -22
13 -28 10 -14 -3 14 -17 84 -31 155 -38 190 -44 196 -117 116z"/>
<path d="M3911 3563 c-6 -32 -13 -98 -16 -148 -5 -100 -7 -113 25 118 13 94 8
112 -9 30z"/>
<path d="M4554 3505 c2 -103 6 -129 28 -183 29 -69 80 -157 116 -199 31 -36
26 -26 -38 81 -77 129 -91 173 -100 306 l-8 115 2 -120z"/>
<path d="M8695 3533 c-32 -92 -107 -246 -177 -361 -28 -46 -48 -85 -46 -87 5
-5 74 90 120 167 51 83 148 341 134 355 -2 2 -16 -31 -31 -74z"/>
<path d="M5023 3481 c-38 -27 -101 -98 -117 -131 -4 -8 8 2 28 22 19 20 56 56
80 78 l45 42 17 -41 c9 -23 18 -40 20 -39 3 4 -24 90 -30 96 -2 1 -21 -11 -43
-27z"/>
<path d="M9239 3439 c29 -42 61 -85 73 -95 12 -11 -7 19 -41 66 -82 111 -98
125 -32 29z"/>
<path d="M7752 3390 c0 -14 2 -19 5 -12 2 6 2 18 0 25 -3 6 -5 1 -5 -13z"/>
<path d="M7762 3340 c0 -14 2 -19 5 -12 2 6 2 18 0 25 -3 6 -5 1 -5 -13z"/>
<path d="M2664 3269 c4 -81 38 -150 103 -209 57 -53 73 -52 73 3 0 23 3 53 6
67 4 20 3 22 -5 10 -6 -8 -11 -34 -11 -57 0 -57 -17 -56 -69 3 -51 59 -79 116
-91 190 l-9 59 3 -66z"/>
<path d="M7771 3294 c0 -11 3 -14 6 -6 3 7 2 16 -1 19 -3 4 -6 -2 -5 -13z"/>
<path d="M7406 3238 c-35 -60 -56 -123 -63 -190 -7 -72 7 -81 67 -43 l43 27
-7 -39 c-4 -21 -10 -48 -13 -60 -9 -39 19 -26 82 37 33 33 55 60 49 60 -5 0
-25 -16 -44 -35 -19 -19 -38 -35 -43 -35 -5 0 -7 25 -5 55 3 30 1 55 -3 55 -4
0 -9 -4 -11 -9 -5 -12 -89 -63 -95 -57 -10 9 26 157 52 213 31 68 26 81 -9 21z"/>
<path d="M3016 3218 c10 -25 26 -57 36 -70 14 -17 12 -8 -7 37 -32 73 -52 97
-29 33z"/>
<path d="M4316 3105 c-9 -26 -7 -32 5 -12 6 10 9 21 6 23 -2 3 -7 -2 -11 -11z"/>
<path d="M7085 3059 c-4 -6 -5 -12 -2 -15 2 -3 7 2 10 11 7 17 1 20 -8 4z"/>
<path d="M3035 3039 c9 -14 86 -69 97 -69 4 0 8 15 7 33 -1 27 -2 29 -8 9 l-6
-23 -42 30 c-45 32 -59 38 -48 20z"/>
<path d="M4955 2930 c7 -46 54 -144 95 -199 40 -55 54 -44 57 43 0 40 9 81 22
111 17 39 18 45 4 34 -27 -23 -43 -75 -43 -141 l-1 -63 -20 25 c-29 35 -68
103 -96 168 -20 46 -23 50 -18 22z"/>
<path d="M2695 2054 c-66 -7 -196 -20 -290 -28 -204 -19 -357 -37 -352 -42 13
-13 669 43 837 71 l75 13 -75 0 c-41 0 -129 -6 -195 -14z"/>
<path d="M2018 1973 c7 -3 16 -2 19 1 4 3 -2 6 -13 5 -11 0 -14 -3 -6 -6z"/>
<path d="M7187 1845 c-47 -33 -48 -44 -1 -16 49 29 71 27 134 -15 l55 -37 -30
32 c-34 37 -75 61 -102 61 -10 0 -35 -11 -56 -25z"/>
<path d="M7850 1787 c19 -20 36 -37 38 -37 9 0 -29 44 -50 58 -14 10 -10 2 12
-21z"/>
<path d="M8700 1475 c80 -13 188 -26 240 -29 l95 -5 -85 14 c-106 18 -341 45
-372 44 -13 -1 42 -12 122 -24z"/>
<path d="M2373 1424 c9 -9 97 -44 97 -38 0 5 -51 30 -80 39 -14 4 -21 4 -17
-1z"/>
<path d="M7572 1374 l-37 -36 45 33 c25 18 47 34 49 36 2 2 -1 3 -7 3 -7 0
-29 -16 -50 -36z"/>
<path d="M7345 1089 c-71 -4 -285 -13 -475 -19 -356 -13 -482 -30 -215 -30
323 0 787 26 885 50 33 8 33 8 -15 7 -27 0 -108 -3 -180 -8z"/>
</g>
</svg>
